# xmcd CD database file
#
# Track frame offsets:
#	182
#	16200
#	33232
#	58565
#	75917
#	95890
#	113395
#	131670
#	171132
#
# Disc length: 2734 seconds
#
# Revision: 5
# Processed by: cddbd v1.5.1PL0 Copyright (c) Steve Scherf et al.
# Submitted via: CDex 1.50
#
DISCID=620aac09
DTITLE=Freddie King - (1934-1976)
DYEAR=1977
DGENRE=Blues
TTITLE0=Pack It Up
TTITLE1=Shake Your Bootie
TTITLE2=Tain't Nobody's Biziness If I Do
TTITLE3=Woman Across the River
TTITLE4=Sweet Home Chicago
TTITLE5=Sugar Sweet
TTITLE6=TV Mama
TTITLE7=Gambling Woman Blues
TTITLE8=Further On Up the Road
EXTD=YEAR: 1977
EXTT0=
EXTT1=
EXTT2=
EXTT3=
EXTT4=
EXTT5=
EXTT6=
EXTT7=
EXTT8=
PLAYORDER=
